<mxfile host="app.diagrams.net" agent="Mozilla/5.0 (Windows NT 10.0; Win64; x64) AppleWebKit/537.36 (KHTML, like Gecko) Chrome/132.0.0.0 Safari/537.36" version="26.0.11">
  <diagram name="Page-1" id="eL7OtAQJyphSRFPmEqrO">
    <mxGraphModel dx="7000" dy="8161" grid="0" gridSize="10" guides="0" tooltips="1" connect="1" arrows="1" fold="1" page="1" pageScale="1" pageWidth="3300" pageHeight="4681" math="0" shadow="0">
      <root>
        <mxCell id="0" />
        <mxCell id="1" parent="0" />
        <mxCell id="9coayfkCWoQ1-N5OWXU_-4" value="&lt;h1 style=&quot;box-sizing: border-box; border: 0px solid; --tw-border-spacing-x: 0; --tw-border-spacing-y: 0; --tw-translate-x: 0; --tw-translate-y: 0; --tw-rotate: 0; --tw-skew-x: 0; --tw-skew-y: 0; --tw-scale-x: 1; --tw-scale-y: 1; --tw-pan-x: ; --tw-pan-y: ; --tw-pinch-zoom: ; --tw-scroll-snap-strictness: proximity; --tw-gradient-from-position: ; --tw-gradient-via-position: ; --tw-gradient-to-position: ; --tw-ordinal: ; --tw-slashed-zero: ; --tw-numeric-figure: ; --tw-numeric-spacing: ; --tw-numeric-fraction: ; --tw-ring-inset: ; --tw-ring-offset-width: 0px; --tw-ring-offset-color: light-dark(#fff, #000000); --tw-ring-color: light-dark(rgba(59,130,246,.5), #4c89ec); --tw-ring-offset-shadow: 0 0 #0000; --tw-ring-shadow: 0 0 #0000; --tw-shadow: 0 0 #0000; --tw-shadow-colored: 0 0 #0000; --tw-blur: ; --tw-brightness: ; --tw-contrast: ; --tw-grayscale: ; --tw-hue-rotate: ; --tw-invert: ; --tw-saturate: ; --tw-sepia: ; --tw-drop-shadow: ; --tw-backdrop-blur: ; --tw-backdrop-brightness: ; --tw-backdrop-contrast: ; --tw-backdrop-grayscale: ; --tw-backdrop-hue-rotate: ; --tw-backdrop-invert: ; --tw-backdrop-opacity: ; --tw-backdrop-saturate: ; --tw-backdrop-sepia: ; --tw-contain-size: ; --tw-contain-layout: ; --tw-contain-paint: ; --tw-contain-style: ; margin: 0px; line-height: 2rem; color: var(--text-color,#000000); text-align: start; background-color: rgb(255, 255, 255);&quot; class=&quot;sc-6a4c5dd9-0 dXTcni&quot;&gt;&lt;span style=&quot;color: rgb(64, 64, 64); font-family: Inter, system-ui, -apple-system, BlinkMacSystemFont, &amp;quot;Segoe UI&amp;quot;, Roboto, &amp;quot;Noto Sans&amp;quot;, Ubuntu, Cantarell, &amp;quot;Helvetica Neue&amp;quot;, Oxygen, &amp;quot;Open Sans&amp;quot;, sans-serif;&quot;&gt;&lt;font style=&quot;font-size: 72px;&quot;&gt;Plateforme de Prise de Rendez-vous MÃ©dicaux en Ligne&lt;/font&gt;&lt;/span&gt;&lt;/h1&gt;" style="text;html=1;align=center;verticalAlign=middle;whiteSpace=wrap;rounded=0;" parent="1" vertex="1">
          <mxGeometry x="2382" y="-4536" width="1915" height="113" as="geometry" />
        </mxCell>
        <mxCell id="9coayfkCWoQ1-N5OWXU_-33" style="rounded=0;orthogonalLoop=1;jettySize=auto;html=1;entryX=0;entryY=0.5;entryDx=0;entryDy=0;exitX=1;exitY=0.3333333333333333;exitDx=0;exitDy=0;exitPerimeter=0;endArrow=none;startFill=0;" parent="1" source="9coayfkCWoQ1-N5OWXU_-5" target="9coayfkCWoQ1-N5OWXU_-12" edge="1">
          <mxGeometry relative="1" as="geometry">
            <mxPoint x="485" y="-3896" as="sourcePoint" />
          </mxGeometry>
        </mxCell>
        <mxCell id="_iy6NoHGY4GpwaVb-YUt-18" style="rounded=0;orthogonalLoop=1;jettySize=auto;html=1;exitX=1;exitY=0.3333333333333333;exitDx=0;exitDy=0;exitPerimeter=0;entryX=0;entryY=0.5;entryDx=0;entryDy=0;endArrow=none;startFill=0;" parent="1" source="9coayfkCWoQ1-N5OWXU_-5" target="9coayfkCWoQ1-N5OWXU_-13" edge="1">
          <mxGeometry relative="1" as="geometry" />
        </mxCell>
        <mxCell id="_iy6NoHGY4GpwaVb-YUt-19" style="rounded=0;orthogonalLoop=1;jettySize=auto;html=1;exitX=1;exitY=0.3333333333333333;exitDx=0;exitDy=0;exitPerimeter=0;endArrow=none;startFill=0;entryX=0;entryY=0.5;entryDx=0;entryDy=0;" parent="1" source="9coayfkCWoQ1-N5OWXU_-5" target="9coayfkCWoQ1-N5OWXU_-20" edge="1">
          <mxGeometry relative="1" as="geometry" />
        </mxCell>
        <mxCell id="_iy6NoHGY4GpwaVb-YUt-20" style="edgeStyle=none;rounded=0;orthogonalLoop=1;jettySize=auto;html=1;exitX=1;exitY=0.3333333333333333;exitDx=0;exitDy=0;exitPerimeter=0;entryX=0;entryY=0.5;entryDx=0;entryDy=0;endArrow=none;startFill=0;" parent="1" source="9coayfkCWoQ1-N5OWXU_-5" target="9coayfkCWoQ1-N5OWXU_-18" edge="1">
          <mxGeometry relative="1" as="geometry" />
        </mxCell>
        <mxCell id="9coayfkCWoQ1-N5OWXU_-5" value="&lt;span style=&quot;box-sizing: border-box; border: 0px solid; --tw-border-spacing-x: 0; --tw-border-spacing-y: 0; --tw-translate-x: 0; --tw-translate-y: 0; --tw-rotate: 0; --tw-skew-x: 0; --tw-skew-y: 0; --tw-scale-x: 1; --tw-scale-y: 1; --tw-pan-x: ; --tw-pan-y: ; --tw-pinch-zoom: ; --tw-scroll-snap-strictness: proximity; --tw-gradient-from-position: ; --tw-gradient-via-position: ; --tw-gradient-to-position: ; --tw-ordinal: ; --tw-slashed-zero: ; --tw-numeric-figure: ; --tw-numeric-spacing: ; --tw-numeric-fraction: ; --tw-ring-inset: ; --tw-ring-offset-width: 0px; --tw-ring-offset-color: light-dark(#fff, #000000); --tw-ring-color: light-dark(rgba(59,130,246,.5), #4c89ec); --tw-ring-offset-shadow: 0 0 #0000; --tw-ring-shadow: 0 0 #0000; --tw-shadow: 0 0 #0000; --tw-shadow-colored: 0 0 #0000; --tw-blur: ; --tw-brightness: ; --tw-contrast: ; --tw-grayscale: ; --tw-hue-rotate: ; --tw-invert: ; --tw-saturate: ; --tw-sepia: ; --tw-drop-shadow: ; --tw-backdrop-blur: ; --tw-backdrop-brightness: ; --tw-backdrop-contrast: ; --tw-backdrop-grayscale: ; --tw-backdrop-hue-rotate: ; --tw-backdrop-invert: ; --tw-backdrop-opacity: ; --tw-backdrop-saturate: ; --tw-backdrop-sepia: ; --tw-contain-size: ; --tw-contain-layout: ; --tw-contain-paint: ; --tw-contain-style: ; font-weight: bolder; font-family: &amp;quot;Nunito Sans&amp;quot;, sans-serif; text-align: start; white-space: pre-wrap; background-color: rgb(255, 255, 255);&quot;&gt;&lt;font style=&quot;font-size: 36px;&quot;&gt;Patient&lt;/font&gt;&lt;/span&gt;" style="shape=umlActor;verticalLabelPosition=bottom;verticalAlign=top;html=1;outlineConnect=0;" parent="1" vertex="1">
          <mxGeometry x="253" y="-4053" width="232" height="424" as="geometry" />
        </mxCell>
        <mxCell id="_iy6NoHGY4GpwaVb-YUt-21" style="edgeStyle=none;rounded=0;orthogonalLoop=1;jettySize=auto;html=1;entryX=0;entryY=0.5;entryDx=0;entryDy=0;endArrow=none;startFill=0;" parent="1" target="9coayfkCWoQ1-N5OWXU_-16" edge="1">
          <mxGeometry relative="1" as="geometry">
            <mxPoint x="517" y="-2504" as="sourcePoint" />
          </mxGeometry>
        </mxCell>
        <mxCell id="_iy6NoHGY4GpwaVb-YUt-22" style="edgeStyle=none;rounded=0;orthogonalLoop=1;jettySize=auto;html=1;exitX=1;exitY=0.3333333333333333;exitDx=0;exitDy=0;exitPerimeter=0;entryX=0;entryY=0.5;entryDx=0;entryDy=0;endArrow=none;startFill=0;" parent="1" source="9coayfkCWoQ1-N5OWXU_-6" target="9coayfkCWoQ1-N5OWXU_-17" edge="1">
          <mxGeometry relative="1" as="geometry" />
        </mxCell>
        <mxCell id="_iy6NoHGY4GpwaVb-YUt-23" style="edgeStyle=none;rounded=0;orthogonalLoop=1;jettySize=auto;html=1;exitX=1;exitY=0.3333333333333333;exitDx=0;exitDy=0;exitPerimeter=0;entryX=0;entryY=0.5;entryDx=0;entryDy=0;endArrow=none;startFill=0;" parent="1" source="9coayfkCWoQ1-N5OWXU_-6" target="9coayfkCWoQ1-N5OWXU_-14" edge="1">
          <mxGeometry relative="1" as="geometry" />
        </mxCell>
        <mxCell id="_iy6NoHGY4GpwaVb-YUt-24" style="edgeStyle=none;rounded=0;orthogonalLoop=1;jettySize=auto;html=1;exitX=1;exitY=0.3333333333333333;exitDx=0;exitDy=0;exitPerimeter=0;entryX=0;entryY=0.5;entryDx=0;entryDy=0;endArrow=none;startFill=0;" parent="1" source="9coayfkCWoQ1-N5OWXU_-6" target="_iy6NoHGY4GpwaVb-YUt-7" edge="1">
          <mxGeometry relative="1" as="geometry" />
        </mxCell>
        <mxCell id="9coayfkCWoQ1-N5OWXU_-6" value="&lt;span style=&quot;box-sizing: border-box; border: 0px solid; --tw-border-spacing-x: 0; --tw-border-spacing-y: 0; --tw-translate-x: 0; --tw-translate-y: 0; --tw-rotate: 0; --tw-skew-x: 0; --tw-skew-y: 0; --tw-scale-x: 1; --tw-scale-y: 1; --tw-pan-x: ; --tw-pan-y: ; --tw-pinch-zoom: ; --tw-scroll-snap-strictness: proximity; --tw-gradient-from-position: ; --tw-gradient-via-position: ; --tw-gradient-to-position: ; --tw-ordinal: ; --tw-slashed-zero: ; --tw-numeric-figure: ; --tw-numeric-spacing: ; --tw-numeric-fraction: ; --tw-ring-inset: ; --tw-ring-offset-width: 0px; --tw-ring-offset-color: light-dark(#fff, #000000); --tw-ring-color: light-dark(rgba(59,130,246,.5), #4c89ec); --tw-ring-offset-shadow: 0 0 #0000; --tw-ring-shadow: 0 0 #0000; --tw-shadow: 0 0 #0000; --tw-shadow-colored: 0 0 #0000; --tw-blur: ; --tw-brightness: ; --tw-contrast: ; --tw-grayscale: ; --tw-hue-rotate: ; --tw-invert: ; --tw-saturate: ; --tw-sepia: ; --tw-drop-shadow: ; --tw-backdrop-blur: ; --tw-backdrop-brightness: ; --tw-backdrop-contrast: ; --tw-backdrop-grayscale: ; --tw-backdrop-hue-rotate: ; --tw-backdrop-invert: ; --tw-backdrop-opacity: ; --tw-backdrop-saturate: ; --tw-backdrop-sepia: ; --tw-contain-size: ; --tw-contain-layout: ; --tw-contain-paint: ; --tw-contain-style: ; font-weight: bolder; font-family: &amp;quot;Nunito Sans&amp;quot;, sans-serif; text-align: start; white-space: pre-wrap; background-color: rgb(255, 255, 255);&quot;&gt;&lt;font style=&quot;font-size: 36px;&quot;&gt;Doctor&lt;/font&gt;&lt;/span&gt;" style="shape=umlActor;verticalLabelPosition=bottom;verticalAlign=top;html=1;outlineConnect=0;" parent="1" vertex="1">
          <mxGeometry x="267" y="-2647" width="232" height="424" as="geometry" />
        </mxCell>
        <mxCell id="9coayfkCWoQ1-N5OWXU_-10" value="&lt;span style=&quot;box-sizing: border-box; border: 0px solid; --tw-border-spacing-x: 0; --tw-border-spacing-y: 0; --tw-translate-x: 0; --tw-translate-y: 0; --tw-rotate: 0; --tw-skew-x: 0; --tw-skew-y: 0; --tw-scale-x: 1; --tw-scale-y: 1; --tw-pan-x: ; --tw-pan-y: ; --tw-pinch-zoom: ; --tw-scroll-snap-strictness: proximity; --tw-gradient-from-position: ; --tw-gradient-via-position: ; --tw-gradient-to-position: ; --tw-ordinal: ; --tw-slashed-zero: ; --tw-numeric-figure: ; --tw-numeric-spacing: ; --tw-numeric-fraction: ; --tw-ring-inset: ; --tw-ring-offset-width: 0px; --tw-ring-offset-color: light-dark(#fff, #000000); --tw-ring-color: light-dark(rgba(59,130,246,.5), #4c89ec); --tw-ring-offset-shadow: 0 0 #0000; --tw-ring-shadow: 0 0 #0000; --tw-shadow: 0 0 #0000; --tw-shadow-colored: 0 0 #0000; --tw-blur: ; --tw-brightness: ; --tw-contrast: ; --tw-grayscale: ; --tw-hue-rotate: ; --tw-invert: ; --tw-saturate: ; --tw-sepia: ; --tw-drop-shadow: ; --tw-backdrop-blur: ; --tw-backdrop-brightness: ; --tw-backdrop-contrast: ; --tw-backdrop-grayscale: ; --tw-backdrop-hue-rotate: ; --tw-backdrop-invert: ; --tw-backdrop-opacity: ; --tw-backdrop-saturate: ; --tw-backdrop-sepia: ; --tw-contain-size: ; --tw-contain-layout: ; --tw-contain-paint: ; --tw-contain-style: ; font-weight: bolder; font-family: &amp;quot;Nunito Sans&amp;quot;, sans-serif; text-align: start; white-space: pre-wrap; background-color: rgb(255, 255, 255);&quot;&gt;&lt;font style=&quot;font-size: 36px;&quot;&gt;Admin&lt;/font&gt;&lt;/span&gt;" style="shape=umlActor;verticalLabelPosition=bottom;verticalAlign=top;html=1;outlineConnect=0;" parent="1" vertex="1">
          <mxGeometry x="244" y="-1207" width="232" height="424" as="geometry" />
        </mxCell>
        <mxCell id="9coayfkCWoQ1-N5OWXU_-12" value="&lt;span style=&quot;font-family: &amp;quot;Nunito Sans&amp;quot;, sans-serif; text-align: left; background-color: rgb(255, 255, 255);&quot;&gt;&lt;font style=&quot;font-size: 48px;&quot;&gt;Consulter les disponibilitÃ©s des mÃ©decins&lt;/font&gt;&lt;/span&gt;" style="ellipse;whiteSpace=wrap;html=1;" parent="1" vertex="1">
          <mxGeometry x="1146" y="-4252" width="776" height="186" as="geometry" />
        </mxCell>
        <mxCell id="_iy6NoHGY4GpwaVb-YUt-35" style="edgeStyle=orthogonalEdgeStyle;rounded=0;orthogonalLoop=1;jettySize=auto;html=1;exitX=1;exitY=0.5;exitDx=0;exitDy=0;entryX=0.346;entryY=0.014;entryDx=0;entryDy=0;entryPerimeter=0;" parent="1" source="9coayfkCWoQ1-N5OWXU_-13" target="9coayfkCWoQ1-N5OWXU_-29" edge="1">
          <mxGeometry relative="1" as="geometry">
            <mxPoint x="4250" y="-3982.999969482422" as="targetPoint" />
          </mxGeometry>
        </mxCell>
        <mxCell id="9coayfkCWoQ1-N5OWXU_-13" value="&lt;div style=&quot;&quot;&gt;&lt;font face=&quot;Nunito Sans, sans-serif&quot;&gt;&lt;span style=&quot;font-size: 48px; background-color: rgb(255, 255, 255);&quot;&gt;Prendre rendez-vous&lt;/span&gt;&lt;/font&gt;&lt;/div&gt;" style="ellipse;whiteSpace=wrap;html=1;" parent="1" vertex="1">
          <mxGeometry x="1148" y="-4046" width="776" height="158" as="geometry" />
        </mxCell>
        <mxCell id="_iy6NoHGY4GpwaVb-YUt-31" style="edgeStyle=none;rounded=0;orthogonalLoop=1;jettySize=auto;html=1;exitX=1;exitY=0.5;exitDx=0;exitDy=0;entryX=0;entryY=0.5;entryDx=0;entryDy=0;" parent="1" source="9coayfkCWoQ1-N5OWXU_-14" target="9coayfkCWoQ1-N5OWXU_-29" edge="1">
          <mxGeometry relative="1" as="geometry" />
        </mxCell>
        <mxCell id="9coayfkCWoQ1-N5OWXU_-14" value="&lt;font style=&quot;font-size: 48px;&quot;&gt;CrÃ©er des certificats mÃ©dicaux&lt;/font&gt;" style="ellipse;whiteSpace=wrap;html=1;" parent="1" vertex="1">
          <mxGeometry x="1192" y="-2414" width="776" height="184" as="geometry" />
        </mxCell>
        <mxCell id="9coayfkCWoQ1-N5OWXU_-15" value="&lt;span style=&quot;font-family: &amp;quot;Nunito Sans&amp;quot;, sans-serif; text-align: left; background-color: rgb(255, 255, 255);&quot;&gt;&lt;font style=&quot;font-size: 48px;&quot;&gt;GÃ©rer les comptes mÃ©decins&lt;/font&gt;&lt;/span&gt;" style="ellipse;whiteSpace=wrap;html=1;" parent="1" vertex="1">
          <mxGeometry x="1163" y="-1358" width="776" height="184" as="geometry" />
        </mxCell>
        <mxCell id="_iy6NoHGY4GpwaVb-YUt-39" style="edgeStyle=orthogonalEdgeStyle;rounded=0;orthogonalLoop=1;jettySize=auto;html=1;exitX=0.5;exitY=0;exitDx=0;exitDy=0;" parent="1" source="9coayfkCWoQ1-N5OWXU_-16" target="9coayfkCWoQ1-N5OWXU_-29" edge="1">
          <mxGeometry relative="1" as="geometry">
            <mxPoint x="3721.3336181640625" y="-3223.666575113932" as="targetPoint" />
            <Array as="points">
              <mxPoint x="1575" y="-3147" />
              <mxPoint x="5218" y="-3147" />
            </Array>
          </mxGeometry>
        </mxCell>
        <mxCell id="9coayfkCWoQ1-N5OWXU_-16" value="&lt;font style=&quot;font-size: 48px;&quot;&gt;GÃ©rer les rendez-vous&lt;/font&gt;" style="ellipse;whiteSpace=wrap;html=1;" parent="1" vertex="1">
          <mxGeometry x="1187" y="-2825" width="776" height="184" as="geometry" />
        </mxCell>
        <mxCell id="_iy6NoHGY4GpwaVb-YUt-32" style="edgeStyle=none;rounded=0;orthogonalLoop=1;jettySize=auto;html=1;exitX=1;exitY=0.5;exitDx=0;exitDy=0;entryX=0;entryY=0;entryDx=0;entryDy=0;" parent="1" source="9coayfkCWoQ1-N5OWXU_-17" target="9coayfkCWoQ1-N5OWXU_-29" edge="1">
          <mxGeometry relative="1" as="geometry">
            <mxPoint x="5146.0003662109375" y="-2342.999969482422" as="targetPoint" />
          </mxGeometry>
        </mxCell>
        <mxCell id="9coayfkCWoQ1-N5OWXU_-17" value="&lt;span style=&quot;font-size: 48px;&quot;&gt;GÃ©nÃ©rer des ordonnances&lt;/span&gt;" style="ellipse;whiteSpace=wrap;html=1;" parent="1" vertex="1">
          <mxGeometry x="1193" y="-2616" width="776" height="184" as="geometry" />
        </mxCell>
        <mxCell id="9coayfkCWoQ1-N5OWXU_-18" value="&lt;span style=&quot;font-family: &amp;quot;Nunito Sans&amp;quot;, sans-serif; text-align: left; background-color: rgb(255, 255, 255);&quot;&gt;&lt;font style=&quot;font-size: 48px;&quot;&gt;GÃ©rer dossier mÃ©dical&lt;/font&gt;&lt;/span&gt;" style="ellipse;whiteSpace=wrap;html=1;" parent="1" vertex="1">
          <mxGeometry x="1153" y="-3674" width="776" height="184" as="geometry" />
        </mxCell>
        <mxCell id="9coayfkCWoQ1-N5OWXU_-19" value="&lt;div&gt;&lt;font color=&quot;#404040&quot;&gt;&lt;span style=&quot;font-size: 48px;&quot;&gt;TÃ©lÃ©verser des documents mÃ©dicaux&lt;/span&gt;&lt;/font&gt;&lt;/div&gt;" style="ellipse;whiteSpace=wrap;html=1;align=center;" parent="1" vertex="1">
          <mxGeometry x="2667" y="-3717" width="776" height="184" as="geometry" />
        </mxCell>
        <mxCell id="9coayfkCWoQ1-N5OWXU_-20" value="&lt;span style=&quot;font-family: &amp;quot;Nunito Sans&amp;quot;, sans-serif; text-align: left; background-color: rgb(255, 255, 255);&quot;&gt;&lt;font style=&quot;font-size: 48px;&quot;&gt;Consulter l&#39;historique mÃ©dical&lt;/font&gt;&lt;/span&gt;" style="ellipse;whiteSpace=wrap;html=1;" parent="1" vertex="1">
          <mxGeometry x="1156" y="-3871" width="776" height="184" as="geometry" />
        </mxCell>
        <mxCell id="9coayfkCWoQ1-N5OWXU_-25" value="&lt;span style=&quot;font-family: &amp;quot;Nunito Sans&amp;quot;, sans-serif; text-align: left; background-color: rgb(255, 255, 255);&quot;&gt;&lt;font style=&quot;font-size: 48px;&quot;&gt;GÃ©rer les contenus&lt;/font&gt;&lt;/span&gt;" style="ellipse;whiteSpace=wrap;html=1;" parent="1" vertex="1">
          <mxGeometry x="1149" y="-947" width="776" height="184" as="geometry" />
        </mxCell>
        <mxCell id="9coayfkCWoQ1-N5OWXU_-26" value="&lt;span style=&quot;font-family: &amp;quot;Nunito Sans&amp;quot;, sans-serif; text-align: left; background-color: rgb(255, 255, 255);&quot;&gt;&lt;font style=&quot;font-size: 48px;&quot;&gt;GÃ©rer les patients&lt;/font&gt;&lt;/span&gt;" style="ellipse;whiteSpace=wrap;html=1;" parent="1" vertex="1">
          <mxGeometry x="1158" y="-1148" width="776" height="184" as="geometry" />
        </mxCell>
        <mxCell id="_iy6NoHGY4GpwaVb-YUt-43" style="edgeStyle=orthogonalEdgeStyle;rounded=0;orthogonalLoop=1;jettySize=auto;html=1;exitX=1;exitY=0.5;exitDx=0;exitDy=0;entryX=0.5;entryY=1;entryDx=0;entryDy=0;" parent="1" source="9coayfkCWoQ1-N5OWXU_-28" target="9coayfkCWoQ1-N5OWXU_-29" edge="1">
          <mxGeometry relative="1" as="geometry" />
        </mxCell>
        <mxCell id="9coayfkCWoQ1-N5OWXU_-28" value="&lt;span style=&quot;font-size: 48px;&quot;&gt;AccÃ©der Ã  la section des statistiques globales&lt;/span&gt;" style="ellipse;whiteSpace=wrap;html=1;" parent="1" vertex="1">
          <mxGeometry x="1161" y="-732" width="776" height="184" as="geometry" />
        </mxCell>
        <mxCell id="9coayfkCWoQ1-N5OWXU_-29" value="&lt;span style=&quot;color: rgb(64, 64, 64); text-align: left;&quot;&gt;&lt;font face=&quot;Helvetica&quot; style=&quot;font-size: 48px;&quot;&gt;Se connecter&lt;/font&gt;&lt;/span&gt;" style="ellipse;whiteSpace=wrap;html=1;" parent="1" vertex="1">
          <mxGeometry x="5130" y="-2370" width="524" height="129" as="geometry" />
        </mxCell>
        <mxCell id="9coayfkCWoQ1-N5OWXU_-53" style="edgeStyle=none;rounded=0;orthogonalLoop=1;jettySize=auto;html=1;exitX=0;exitY=0.5;exitDx=0;exitDy=0;entryX=1;entryY=0;entryDx=0;entryDy=0;" parent="1" source="9coayfkCWoQ1-N5OWXU_-51" target="9coayfkCWoQ1-N5OWXU_-15" edge="1">
          <mxGeometry relative="1" as="geometry" />
        </mxCell>
        <mxCell id="9coayfkCWoQ1-N5OWXU_-51" value="&lt;span style=&quot;text-align: left; background-color: rgb(255, 255, 255);&quot;&gt;&lt;font face=&quot;Helvetica&quot; style=&quot;font-size: 48px;&quot;&gt;Valider la demande d&#39;inscription&lt;/font&gt;&lt;/span&gt;" style="ellipse;whiteSpace=wrap;html=1;" parent="1" vertex="1">
          <mxGeometry x="2415" y="-1474" width="776" height="184" as="geometry" />
        </mxCell>
        <mxCell id="9coayfkCWoQ1-N5OWXU_-54" style="edgeStyle=none;rounded=0;orthogonalLoop=1;jettySize=auto;html=1;exitX=0;exitY=0.5;exitDx=0;exitDy=0;entryX=1;entryY=1;entryDx=0;entryDy=0;" parent="1" source="9coayfkCWoQ1-N5OWXU_-52" target="9coayfkCWoQ1-N5OWXU_-15" edge="1">
          <mxGeometry relative="1" as="geometry" />
        </mxCell>
        <mxCell id="9coayfkCWoQ1-N5OWXU_-52" value="&lt;span style=&quot;text-align: left; background-color: rgb(255, 255, 255);&quot;&gt;&lt;font style=&quot;font-size: 48px;&quot;&gt;Refuser la demande d&#39;inscription&lt;/font&gt;&lt;/span&gt;" style="ellipse;whiteSpace=wrap;html=1;" parent="1" vertex="1">
          <mxGeometry x="2422" y="-1277" width="776" height="184" as="geometry" />
        </mxCell>
        <mxCell id="_iy6NoHGY4GpwaVb-YUt-30" style="edgeStyle=none;rounded=0;orthogonalLoop=1;jettySize=auto;html=1;exitX=1;exitY=0.5;exitDx=0;exitDy=0;entryX=0;entryY=1;entryDx=0;entryDy=0;" parent="1" source="_iy6NoHGY4GpwaVb-YUt-7" target="9coayfkCWoQ1-N5OWXU_-29" edge="1">
          <mxGeometry relative="1" as="geometry" />
        </mxCell>
        <mxCell id="_iy6NoHGY4GpwaVb-YUt-7" value="&lt;font style=&quot;font-size: 48px;&quot;&gt;Consulter l&#39;historique mÃ©dical du patient&lt;/font&gt;" style="ellipse;whiteSpace=wrap;html=1;" parent="1" vertex="1">
          <mxGeometry x="1188" y="-2214" width="776" height="184" as="geometry" />
        </mxCell>
        <mxCell id="_iy6NoHGY4GpwaVb-YUt-13" style="rounded=0;orthogonalLoop=1;jettySize=auto;html=1;exitX=0;exitY=0.5;exitDx=0;exitDy=0;entryX=1;entryY=0;entryDx=0;entryDy=0;dashed=1;dashPattern=12 12;" parent="1" source="_iy6NoHGY4GpwaVb-YUt-11" target="9coayfkCWoQ1-N5OWXU_-16" edge="1">
          <mxGeometry relative="1" as="geometry" />
        </mxCell>
        <mxCell id="_iy6NoHGY4GpwaVb-YUt-11" value="&lt;font style=&quot;font-size: 48px;&quot;&gt;Consulter les rendez-vous rÃ©servÃ©es&lt;/font&gt;" style="ellipse;whiteSpace=wrap;html=1;" parent="1" vertex="1">
          <mxGeometry x="2365" y="-2950" width="776" height="184" as="geometry" />
        </mxCell>
        <mxCell id="_iy6NoHGY4GpwaVb-YUt-14" style="rounded=0;orthogonalLoop=1;jettySize=auto;html=1;exitX=0;exitY=0.5;exitDx=0;exitDy=0;entryX=1;entryY=1;entryDx=0;entryDy=0;dashed=1;dashPattern=12 12;" parent="1" source="_iy6NoHGY4GpwaVb-YUt-12" target="9coayfkCWoQ1-N5OWXU_-16" edge="1">
          <mxGeometry relative="1" as="geometry" />
        </mxCell>
        <mxCell id="_iy6NoHGY4GpwaVb-YUt-12" value="&lt;font style=&quot;font-size: 48px;&quot;&gt;Reprogrammer les rendez-vous&lt;/font&gt;" style="ellipse;whiteSpace=wrap;html=1;" parent="1" vertex="1">
          <mxGeometry x="2370" y="-2755" width="776" height="184" as="geometry" />
        </mxCell>
        <mxCell id="_iy6NoHGY4GpwaVb-YUt-17" style="rounded=0;orthogonalLoop=1;jettySize=auto;html=1;entryX=1;entryY=1;entryDx=0;entryDy=0;dashed=1;dashPattern=12 12;" parent="1" source="_iy6NoHGY4GpwaVb-YUt-15" target="9coayfkCWoQ1-N5OWXU_-18" edge="1">
          <mxGeometry relative="1" as="geometry" />
        </mxCell>
        <mxCell id="_iy6NoHGY4GpwaVb-YUt-15" value="&lt;div&gt;&lt;font color=&quot;#404040&quot;&gt;&lt;span style=&quot;font-size: 48px;&quot;&gt;Mettre a jour les formations personnelles&lt;/span&gt;&lt;/font&gt;&lt;/div&gt;" style="ellipse;whiteSpace=wrap;html=1;align=center;" parent="1" vertex="1">
          <mxGeometry x="2664" y="-3502" width="776" height="184" as="geometry" />
        </mxCell>
        <mxCell id="_iy6NoHGY4GpwaVb-YUt-16" style="rounded=0;orthogonalLoop=1;jettySize=auto;html=1;entryX=1;entryY=0;entryDx=0;entryDy=0;dashed=1;dashPattern=12 12;" parent="1" source="9coayfkCWoQ1-N5OWXU_-19" target="9coayfkCWoQ1-N5OWXU_-18" edge="1">
          <mxGeometry relative="1" as="geometry" />
        </mxCell>
        <mxCell id="_iy6NoHGY4GpwaVb-YUt-27" style="edgeStyle=none;rounded=0;orthogonalLoop=1;jettySize=auto;html=1;exitX=0;exitY=0.5;exitDx=0;exitDy=0;entryX=1;entryY=0;entryDx=0;entryDy=0;" parent="1" source="_iy6NoHGY4GpwaVb-YUt-25" target="9coayfkCWoQ1-N5OWXU_-25" edge="1">
          <mxGeometry relative="1" as="geometry" />
        </mxCell>
        <mxCell id="_iy6NoHGY4GpwaVb-YUt-25" value="&lt;span style=&quot;text-align: left; background-color: rgb(255, 255, 255);&quot;&gt;&lt;font style=&quot;font-size: 48px;&quot;&gt;FAQ&lt;/font&gt;&lt;/span&gt;" style="ellipse;whiteSpace=wrap;html=1;" parent="1" vertex="1">
          <mxGeometry x="2421" y="-1041" width="776" height="184" as="geometry" />
        </mxCell>
        <mxCell id="_iy6NoHGY4GpwaVb-YUt-28" style="edgeStyle=none;rounded=0;orthogonalLoop=1;jettySize=auto;html=1;exitX=0;exitY=0.5;exitDx=0;exitDy=0;entryX=1;entryY=1;entryDx=0;entryDy=0;" parent="1" source="_iy6NoHGY4GpwaVb-YUt-26" target="9coayfkCWoQ1-N5OWXU_-25" edge="1">
          <mxGeometry relative="1" as="geometry" />
        </mxCell>
        <mxCell id="_iy6NoHGY4GpwaVb-YUt-26" value="&lt;span style=&quot;text-align: left; background-color: rgb(255, 255, 255);&quot;&gt;&lt;font style=&quot;font-size: 48px;&quot;&gt;Articles&lt;/font&gt;&lt;/span&gt;" style="ellipse;whiteSpace=wrap;html=1;" parent="1" vertex="1">
          <mxGeometry x="2424" y="-841" width="776" height="184" as="geometry" />
        </mxCell>
        <mxCell id="_iy6NoHGY4GpwaVb-YUt-33" style="edgeStyle=orthogonalEdgeStyle;rounded=0;orthogonalLoop=1;jettySize=auto;html=1;exitX=1;exitY=0.5;exitDx=0;exitDy=0;entryX=0.5;entryY=0;entryDx=0;entryDy=0;" parent="1" source="_iy6NoHGY4GpwaVb-YUt-29" target="9coayfkCWoQ1-N5OWXU_-29" edge="1">
          <mxGeometry relative="1" as="geometry" />
        </mxCell>
        <mxCell id="_iy6NoHGY4GpwaVb-YUt-29" value="&lt;span style=&quot;font-family: &amp;quot;Nunito Sans&amp;quot;, sans-serif; text-align: left; background-color: rgb(255, 255, 255);&quot;&gt;&lt;font style=&quot;font-size: 48px;&quot;&gt;S&#39;inscrire&lt;/font&gt;&lt;/span&gt;" style="ellipse;whiteSpace=wrap;html=1;" parent="1" vertex="1">
          <mxGeometry x="1145" y="-4454" width="776" height="186" as="geometry" />
        </mxCell>
        <mxCell id="_iy6NoHGY4GpwaVb-YUt-34" style="edgeStyle=orthogonalEdgeStyle;rounded=0;orthogonalLoop=1;jettySize=auto;html=1;exitX=1;exitY=0.5;exitDx=0;exitDy=0;" parent="1" source="9coayfkCWoQ1-N5OWXU_-12" edge="1">
          <mxGeometry relative="1" as="geometry">
            <mxPoint x="5354" y="-2370" as="targetPoint" />
          </mxGeometry>
        </mxCell>
        <mxCell id="_iy6NoHGY4GpwaVb-YUt-36" style="edgeStyle=orthogonalEdgeStyle;rounded=0;orthogonalLoop=1;jettySize=auto;html=1;entryX=0.267;entryY=0.054;entryDx=0;entryDy=0;entryPerimeter=0;" parent="1" source="9coayfkCWoQ1-N5OWXU_-20" target="9coayfkCWoQ1-N5OWXU_-29" edge="1">
          <mxGeometry relative="1" as="geometry" />
        </mxCell>
        <mxCell id="_iy6NoHGY4GpwaVb-YUt-37" style="edgeStyle=orthogonalEdgeStyle;rounded=0;orthogonalLoop=1;jettySize=auto;html=1;exitX=0.5;exitY=1;exitDx=0;exitDy=0;" parent="1" source="9coayfkCWoQ1-N5OWXU_-18" edge="1">
          <mxGeometry relative="1" as="geometry">
            <mxPoint x="5242" y="-2359" as="targetPoint" />
            <Array as="points">
              <mxPoint x="1541" y="-3271" />
              <mxPoint x="5242" y="-3271" />
            </Array>
          </mxGeometry>
        </mxCell>
        <mxCell id="_iy6NoHGY4GpwaVb-YUt-40" style="edgeStyle=orthogonalEdgeStyle;rounded=0;orthogonalLoop=1;jettySize=auto;html=1;exitX=0.5;exitY=0;exitDx=0;exitDy=0;" parent="1" source="9coayfkCWoQ1-N5OWXU_-15" edge="1">
          <mxGeometry relative="1" as="geometry">
            <mxPoint x="5246" y="-2255" as="targetPoint" />
          </mxGeometry>
        </mxCell>
        <mxCell id="_iy6NoHGY4GpwaVb-YUt-41" style="edgeStyle=orthogonalEdgeStyle;rounded=0;orthogonalLoop=1;jettySize=auto;html=1;exitX=1;exitY=0.5;exitDx=0;exitDy=0;entryX=0.337;entryY=0.967;entryDx=0;entryDy=0;entryPerimeter=0;" parent="1" source="9coayfkCWoQ1-N5OWXU_-26" target="9coayfkCWoQ1-N5OWXU_-29" edge="1">
          <mxGeometry relative="1" as="geometry" />
        </mxCell>
        <mxCell id="_iy6NoHGY4GpwaVb-YUt-42" style="edgeStyle=orthogonalEdgeStyle;rounded=0;orthogonalLoop=1;jettySize=auto;html=1;exitX=1;exitY=0.5;exitDx=0;exitDy=0;" parent="1" source="9coayfkCWoQ1-N5OWXU_-25" edge="1">
          <mxGeometry relative="1" as="geometry">
            <mxPoint x="5354" y="-2243" as="targetPoint" />
            <Array as="points">
              <mxPoint x="1925" y="-846" />
              <mxPoint x="5354" y="-846" />
            </Array>
          </mxGeometry>
        </mxCell>
      </root>
    </mxGraphModel>
  </diagram>
</mxfile>
